<!-- Generator: Adobe Illustrator 21.1.0, SVG Export Plug-In  -->
<svg version="1.1"
     xmlns="http://www.w3.org/2000/svg" xmlns:xlink="http://www.w3.org/1999/xlink" xmlns:a="http://ns.adobe.com/AdobeSVGViewerExtensions/3.0/"
     x="0px" y="0px" width="524.6px" height="158.4px" viewBox="0 0 524.6 158.4" style="enable-background:new 0 0 524.6 158.4;"
     xml:space="preserve">
<style type="text/css">
    .st0{fill:#FFFFFF;}
</style>
<defs>
</defs>
<path class="st0" d="M4.2,62.7c0,0,0.7,35.2,0.2,43.2s-0.8,16.3-2,24s-4.2,18.8-0.8,23.3s9.5,3.7,11.8,0.3s2.7-4,0.5-17.7
    S11.5,118,14.5,114s16.5-1.2,19,0.3s6,3.2,4,13.7s-1.2,12.7,1.8,13.7s5.3,1,7.7-1.5c2.3-2.5,1-7.8,0.2-14.5s2.2-9.5,5.2-10.5
    s6.7-0.2,8.8,1.2c2.2,1.3,4.8,10.8,7,13.2c2.2,2.3,5.5,3.2,8.3,0c2.8-3.2,2.5-5.3,3.7-8.7c1.2-3.3,4-6.8,9.2-8.5
    c5.2-1.7,12.5-1.3,15.5,5c3,6.3,1.5,14.3,0,21.3s-3.5,10.7,1.5,13.7s7.8-1.5,8.3-3.3s-2-18-2.3-23.7c-0.3-5.7-0.2-10.2,1.5-12.7
    c1.7-2.5,6.5-3.2,9.8-3.2s6.5,0.7,8,2s2.3,5.3,1,10.3c-1.3,5-2,8.7,1.8,9.5c3.8,0.8,3.7-0.2,5-1.2s2.3-2.5,1.2-9
    c-1.2-6.5-2.5-10.7-1.7-12.5c0.8-1.8,3.8-1,5.5-0.3c1.7,0.7,4.7,1,7.2-0.7c2.5-1.7,3.3-4.8,5.8-4.8s4.7-0.5,8.2,2s5.8,6,7.2,9
    c1.3,3,2.5,3.2,4.5,3.3c2,0.2,3.8,0.3,5.5-4.5c1.7-4.8,2.5-5.8,3.8-6.8c1.3-1,5.2-1.2,10,0c4.8,1.2,9.3,4,10.2,11.7
    c0.8,7.7-1.3,17.7-2.3,22s-2,11.8,1.5,15.2c3.5,3.3,7.2,2.5,9.7,1.5s4.5-3.8,3.5-12c-1-8.2-4.2-18.8-3.2-24.5c1-5.7,5.3-6.3,7.3-6.5
    c2-0.2,9.2,0,12.7,1.5s6.8,4.7,6.2,9.7c-0.7,5-2.5,13.8-1.3,16.3c1.2,2.5,3.5,2.7,5.7,2.8s4.3-0.3,5.3-4.5s-1.7-12-0.8-16.5
    s3.3-5.5,6.5-6.3c3.2-0.8,6.5-1.2,9.8,4.5c3.3,5.7,3.2,10.8,8.2,11.7c5,0.8,6.3-3.7,7.5-6.3c1.2-2.7,1.3-8,5.7-10.7
    c4.3-2.7,11-4.3,16-1.2c5,3.2,6.7,10,5.7,17.5c-1,7.5-4.2,14-3.2,18s3,4.5,6.2,4.3s4.3-1.2,5-4.8c0.7-3.7-0.8-12.7-1.5-17.8
    c-0.7-5.2-1.7-12.5,0.7-16.8c2.3-4.3,9.5-4.7,14-3.8c4.5,0.8,6.2,4.5,5.5,9.5c-0.7,5-2.8,10,0.8,11.8s6.2-0.2,7-2.8
    c0.8-2.7-0.3-11-1.8-15.3c-1.5-4.3,0.7-5.5,2-5.3c1.3,0.2,4.5,2.3,8.8,1s3.7-5.2,7.8-5.5c4.2-0.3,5.8-0.2,8.3,1.5s6.2,7.3,7.8,10
    s3.7,4,6.5,2.3c2.8-1.7,3.7-8.2,6.3-10.3c2.7-2.2,5.7-1.3,8.2-0.8s6.8,0.5,9.7,4.7c2.8,4.2,3.3,7.8,3.2,11.3c-0.2,3.5-1.7,14-2.5,19
    c-0.8,5-0.8,9.8,0.3,12.3c1.2,2.5,2.8,3.3,4.5,3.8c1.7,0.5,5.7,1.5,8.2-2s2.2-7.3,1.3-13.7c-0.8-6.3-3.7-15.2-2.8-20.7
    c0.8-5.5,5.3-7.5,9.3-7.7c4-0.2,10.3,1,13.2,2.8c2.8,1.8,4.2,5.7,3.7,10.3c-0.5,4.7-2.5,11.5-1.5,14.3c1,2.8,4.2,3.3,6.7,3
    c2.5-0.3,5.3-1.8,5-8c-0.3-6.2-2.5-12.8,0.2-16c2.7-3.2,8.8-3.7,11.3-2.8s5.2,6.8,6.7,10.2c1.5,3.3,1.7,5.8,5.7,6
    c4,0.2,5.3-2.5,6.5-5.3c1.2-2.8,2-9.8,6.7-12.2c4.7-2.3,10.7-3.8,15-1c4.3,2.8,7.7,9.2,6.5,16.2c-1.2,7-3.8,14.2-3.7,17.5
    c0.2,3.3,1,6.2,5.5,6.3c4.5,0.2,6-2.5,6-7.7s-2-16.7-2.3-20.3c-0.3-3.7,0.7-12.7,1.8-18c1.2-5.3,1.8-11.9,1.8-18.1s0-91,0-91H3.9
    L4.2,62.7z"/>
</svg>
