<!-- Generator: Adobe Illustrator 21.1.0, SVG Export Plug-In  -->
<svg version="1.1"
     xmlns="http://www.w3.org/2000/svg" xmlns:xlink="http://www.w3.org/1999/xlink" xmlns:a="http://ns.adobe.com/AdobeSVGViewerExtensions/3.0/"
     x="0px" y="0px" width="79.8px" height="45.7px" viewBox="0 0 79.8 45.7" style="enable-background:new 0 0 79.8 45.7;"
     xml:space="preserve">
<style type="text/css">
    .st0{fill:#FFFFFF;}
</style>
<defs>
</defs>
<g>
    <path class="st0" d="M21,26c-0.1-0.2-0.2-0.3-0.3-0.5c-0.2,0.1-0.5,0.1-0.7,0.2v3.3v3c0.2-0.2,0.3-0.5,0.5-0.7
        c0.1-0.1,0.1-0.2,0.2-0.2c0.1-0.2,0.3-0.4,0.4-0.7c0.1-0.1,0.1-0.2,0.2-0.3c0.1-0.1,0.2-0.3,0.2-0.4c0.1-0.2,0.2-0.4,0.3-0.6
        c0-0.1,0.1-0.1,0.1-0.2c0.1-0.1,0.1-0.2,0.2-0.3c0.1-0.1,0.1-0.2,0.2-0.3c0.2-0.4,0.4-0.9,0.6-1.3C22.1,26.9,21.4,26.6,21,26z"/>
    <path class="st0" d="M30.5,28.9c0.8,1.5,1.8,3,2.8,4.2c0.5,0.6,1.2,1.1,1.9,1.6c0.3,0.2,0.7,0.4,1,0.6v-6.4v-2.6
        c-0.4-0.1-0.7-0.1-1-0.2c-1.5-0.3-2.9-0.5-4-0.8c-0.3,0.7-0.9,1.3-1.7,1.5C29.8,27.6,30.1,28.2,30.5,28.9z"/>
    <path class="st0" d="M9.2,42.7c-2.2,0-4-1.8-4-4v-9.7h13.7v-3.1c-0.1,0-0.2,0-0.3,0c-0.2,0-0.5,0.1-0.7,0.1c-0.1,0-0.2,0-0.3,0.1
        c-0.3,0.1-0.7,0.1-1,0.2c0,0,0,0,0,0c-0.3,0.1-0.7,0.1-1,0.2c-0.1,0-0.2,0-0.3,0.1c-0.3,0-0.5,0.1-0.8,0.1c-0.1,0-0.3,0-0.4,0.1
        c-0.3,0-0.5,0.1-0.8,0.1c-0.1,0-0.2,0-0.4,0c-0.4,0-0.8,0.1-1.2,0.1C11.2,27,10.6,27,10.1,27c-1.7,0-3.4-0.3-4.9-0.7
        c-0.5-0.1-1.1-0.3-1.5-0.5c-0.2-0.1-0.4-0.1-0.5-0.2v12.9c0,3.4,2.7,6.1,6.1,6.1h3.1l-2.6-2.1H9.2z"/>
    <path class="st0" d="M73.7,0H37.3H18.9H9.2C5.8,0,3.1,2.7,3.1,6.1v1.1c0.6,0,1.3,0,2.1,0.1V6.1c0-2.2,1.8-4,4-4h9.7h0.3h0.7v10
        c0.1,0.1,0.1,0.1,0.2,0.2c0,0,0,0,0.1,0.1c0.1,0.1,0.2,0.2,0.3,0.3c0.1,0.1,0.1,0.1,0.2,0.2c0,0,0.1,0.1,0.1,0.1
        c0,0,0.1,0.1,0.1,0.1c0.1,0.1,0.2,0.3,0.4,0.4c0,0,0.1,0.1,0.1,0.1c0.1,0.2,0.3,0.3,0.4,0.5c0,0,0,0.1,0.1,0.1
        c0.5,0.6,0.9,1.3,1.3,1.8l0,0h5.4c0.1,0,0.2,0,0.2,0c0.7-1.1,1.6-2.3,2.8-3.4c1-0.9,2.1-1.8,3.4-2.6c0.3-0.2,0.7-0.4,1-0.6V2.1h0.7
        h0.3h36.4c2.2,0,4,1.8,4,4v6.5H54.4c0.1,2,0,5,0,6.9c0,1.2,0,2-0.1,2.1l0,0.4l0,0.5c0,0.3,0,0.6,0,0.8c0,0.1-0.2,0.1-0.4,0.2
        c-2.1,1.2-6.7,3.4-11.7,3.4c-0.5,0-1.1,0-1.6-0.1c-1.2-0.1-2.3-0.3-3.3-0.4v2.4h40.5v9.7c0,2.2-1.8,4-4,4H42.6L40,44.8h33.7
        c3.4,0,6.1-2.7,6.1-6.1V6.1C79.8,2.7,77.1,0,73.7,0z"/>
    <path class="st0" d="M29.8,43.7c-0.3-0.3-0.5-0.7-0.8-1c-0.7-1.1-1.4-2.4-2-4.1c-0.4-1.3-0.7-4.8-0.9-8c0,0,0,0,0,0
        c0,0.2,0,0.4,0,0.6c0,0,0,0,0,0c0,0.2,0,0.4,0,0.6c0,0,0,0,0,0c0,0.2,0,0.4,0,0.6c0,0.1,0,0.1,0,0.2c0,0.3-0.1,0.7-0.1,1
        c0,0,0,0,0,0c0,0.6-0.1,1.2-0.2,1.7c0,0.1,0,0.1,0,0.2c0,0.1,0,0.2,0,0.3c0,0.2,0,0.3-0.1,0.4c0,0,0,0,0,0c0,0.1,0,0.1,0,0.2
        c0,0.2-0.1,0.5-0.1,0.7c-0.1,0.4-0.1,0.7-0.2,0.9c0,0.2-0.1,0.3-0.1,0.4c-0.5,1.6-1.2,2.9-2,4.1c-0.2,0.4-0.5,0.7-0.8,1
        c-0.2,0.2-0.4,0.5-0.6,0.7c-0.1,0.1-0.2,0.2-0.3,0.3h9.1c-0.1-0.1-0.2-0.2-0.3-0.3C30.2,44.2,30,44,29.8,43.7z"/>
    <path class="st0" d="M37.3,38.2c-0.1-0.1-0.2-0.1-0.3-0.2c-0.2-0.1-0.5-0.2-0.7-0.3c-0.4-0.2-0.7-0.4-1-0.6
        c-1.4-0.8-2.6-1.7-3.5-2.7c-1.4-1.6-2.6-3.6-3.5-5.5c0.2,3.6,0.5,7.6,0.9,8.9c0.7,2,1.6,3.6,2.5,4.7c0.3,0.4,0.6,0.7,1,1
        c0.3,0.3,0.5,0.5,0.8,0.7c0.2,0.1,0.3,0.2,0.5,0.3c0.7,0.5,1.3,0.8,1.7,0.9l1.2-0.9l0.6-0.5l2-1.6l3.1-2.5
        C41,39.7,39.1,39.1,37.3,38.2z"/>
    <path class="st0" d="M52.2,20.1c0-0.6,0-1.3,0-2.1c0-0.7,0-1.4,0-2.2c0-1.1,0-2.3,0-3.2c0-0.5,0-1-0.1-1.3
        c-0.1-0.9-0.1-1.3-0.4-1.5c-1.1-0.9-6.1-0.4-9.7,0.1c-0.5,0.1-0.9,0.1-1.4,0.2c-0.1,0-0.2,0.1-0.4,0.1c-0.3,0.1-0.7,0.2-1,0.3
        c-0.1,0-0.2,0.1-0.3,0.1c-0.4,0.1-0.8,0.3-1.1,0.4c-0.1,0-0.2,0.1-0.2,0.1c-0.1,0.1-0.3,0.1-0.4,0.2c-0.1,0.1-0.2,0.1-0.3,0.2
        c0,0,0,0-0.1,0c-0.1,0.1-0.2,0.1-0.3,0.2c-0.1,0.1-0.2,0.1-0.3,0.2c-0.2,0.1-0.3,0.2-0.5,0.3c0,0-0.1,0.1-0.1,0.1
        c-0.1,0.1-0.3,0.2-0.4,0.3c-0.1,0-0.1,0.1-0.2,0.1c-0.1,0.1-0.2,0.1-0.3,0.2c-0.1,0.1-0.2,0.1-0.3,0.2c-0.2,0.2-0.4,0.3-0.6,0.5
        c-0.1,0.1-0.2,0.1-0.2,0.2c-0.2,0.2-0.5,0.4-0.7,0.6c-0.1,0.1-0.1,0.1-0.2,0.2c-0.2,0.2-0.3,0.3-0.4,0.5c-0.1,0.1-0.2,0.2-0.2,0.3
        c-0.1,0.2-0.3,0.3-0.4,0.5c-0.1,0.1-0.1,0.2-0.2,0.2c-0.2,0.2-0.3,0.4-0.4,0.6c-0.1,0.1-0.1,0.2-0.2,0.3c0,0.1-0.1,0.1-0.1,0.2
        c0,0,0,0,0,0c0.3,0.4,0.6,1,0.6,1.6v1.8c0.6-0.3,1.3-0.7,2-1c0.6-0.3,1.2-0.6,1.8-0.9c0.3-0.2,0.7-0.3,1-0.5
        c0.2-0.1,0.5-0.2,0.7-0.3c0,0,0,0,0,0c0.1,0,0.2-0.1,0.3-0.1C41.7,15.9,49,18.7,52.2,20.1C52.2,20,52.2,20.1,52.2,20.1z"/>
    <path class="st0" d="M37.8,19.6c-0.2,0.1-0.4,0.2-0.5,0.3C37.1,19.9,37,20,36.9,20c-0.2,0.1-0.5,0.2-0.7,0.3
        c-0.4,0.2-0.7,0.3-1,0.5c-1.4,0.7-2.7,1.4-3.8,2v0.4c1.1,0.2,2.3,0.5,3.8,0.8c0.3,0.1,0.7,0.1,1,0.2c0.2,0,0.5,0.1,0.7,0.1
        c0.1,0,0.2,0,0.3,0.1c1.1,0.2,2.3,0.3,3.5,0.5c4.4,0.4,8.7-1.4,11.2-2.6C48.6,20.7,41.3,18,37.8,19.6z"/>
    <path class="st0" d="M24.1,29.1c-0.9,1.7-1.9,3.5-3.1,5c-0.1,0.2-0.3,0.3-0.4,0.5c-0.2,0.2-0.4,0.4-0.6,0.7
        c-0.2,0.2-0.5,0.4-0.7,0.6C19.1,35.9,19,36,18.9,36c-2.7,2-6.6,3.4-9,4.1l3.1,2.5l2.6,2.1l1.2,0.9c0.4-0.2,1-0.5,1.7-0.9
        c0.2-0.1,0.3-0.2,0.5-0.3c0.1-0.1,0.2-0.2,0.3-0.3c0.2-0.2,0.5-0.4,0.7-0.7c0.2-0.2,0.5-0.5,0.7-0.8c0.1-0.1,0.2-0.3,0.3-0.4
        c0.8-1.1,1.6-2.5,2.2-4.3C23.6,36.7,23.9,32.7,24.1,29.1z"/>
    <path class="st0" d="M3.6,18.7c0.5-0.2,1-0.3,1.5-0.5c3.4-1,7.4-1.7,10.2-0.5c1.3,0.6,2.5,1.2,3.6,1.7c0,0,0,0,0,0
        c0.1,0.1,0.2,0.1,0.3,0.2c0.2,0.1,0.4,0.2,0.5,0.3c0.1,0,0.1,0.1,0.2,0.1c0.2,0.1,0.3,0.2,0.5,0.2c0,0,0,0,0,0v-1.5
        c0-0.6,0.2-1.2,0.6-1.6c0.1-0.1,0.2-0.2,0.3-0.3c0,0,0,0,0,0l0,0c0-0.1-0.1-0.1-0.1-0.2c-0.1-0.1-0.1-0.2-0.2-0.2
        c-0.1-0.1-0.2-0.3-0.3-0.4c-0.1-0.1-0.1-0.2-0.2-0.2c0,0,0,0,0,0c-0.1-0.2-0.2-0.3-0.4-0.5l0,0c-0.1-0.1-0.1-0.2-0.2-0.3
        c0,0,0,0,0,0c0,0,0,0,0,0c-0.1-0.1-0.1-0.1-0.2-0.2c-0.1-0.1-0.2-0.2-0.3-0.3c-0.1-0.1-0.1-0.1-0.2-0.2c0,0,0,0-0.1-0.1
        c-0.1-0.1-0.2-0.2-0.3-0.3c-0.1-0.1-0.2-0.2-0.3-0.3c-0.1-0.1-0.2-0.1-0.2-0.2c0,0,0,0,0,0c-0.1-0.1-0.3-0.2-0.4-0.4
        c0,0-0.1-0.1-0.1-0.1c-0.1-0.1-0.2-0.1-0.3-0.2c-0.1-0.1-0.2-0.1-0.3-0.2c-0.2-0.1-0.4-0.3-0.6-0.4c0,0-0.1-0.1-0.1-0.1
        c-0.1-0.1-0.2-0.1-0.4-0.2c-0.2-0.1-0.3-0.2-0.5-0.3c0,0,0,0,0,0c-0.1-0.1-0.2-0.1-0.3-0.2c-0.3-0.1-0.5-0.3-0.8-0.4
        c-0.1,0-0.2-0.1-0.2-0.1c-0.4-0.2-0.7-0.3-1.1-0.4c-0.1,0-0.2-0.1-0.3-0.1c0,0,0,0,0,0c-0.2-0.1-0.4-0.1-0.6-0.2
        c-0.1,0-0.3-0.1-0.4-0.1c-0.1,0-0.2-0.1-0.4-0.1l0,0c-0.4-0.1-0.9-0.2-1.4-0.2C8.6,9.7,6.8,9.5,5.2,9.4c-0.7,0-1.5-0.1-2.1-0.1
        c-1.2,0-2.2,0.1-2.6,0.5c-0.3,0.2-0.3,0.6-0.4,1.5C0,12.3,0,14,0,15.8c0,0.7,0,1.5,0,2.2c0,0.8,0,1.5,0,2.1c0,0,0,0,0,0
        c0.8-0.3,1.8-0.8,3-1.2C3.3,18.8,3.4,18.7,3.6,18.7z"/>
    <path class="st0" d="M3.6,23.7c0.5,0.2,1,0.3,1.5,0.5c1.9,0.6,4.1,0.9,6.3,0.7c0.5,0,0.9-0.1,1.3-0.1c0.2,0,0.3,0,0.5-0.1
        c0.3,0,0.6-0.1,0.8-0.1c0.2,0,0.4-0.1,0.5-0.1c0.2,0,0.5-0.1,0.7-0.1c0.2,0,0.4-0.1,0.6-0.1c0.2,0,0.4-0.1,0.6-0.1
        c0.2,0,0.4-0.1,0.7-0.1c0.1,0,0.3-0.1,0.4-0.1c0.2,0,0.5-0.1,0.7-0.1c0.1,0,0.2,0,0.3-0.1c0.1,0,0.2,0,0.2,0c0.1,0,0.2,0,0.3-0.1
        c0.1,0,0.1,0,0.2,0c0.1,0,0.1,0,0.2,0c0.1,0,0.2,0,0.4-0.1c0.2,0,0.3-0.1,0.5-0.1v-0.8c-0.1-0.1-0.3-0.2-0.5-0.3c0,0,0,0-0.1,0
        c0,0-0.1,0-0.1-0.1c-0.2-0.1-0.3-0.2-0.5-0.3c0,0,0,0,0,0c-0.1,0-0.1-0.1-0.2-0.1c0,0-0.1,0-0.1-0.1c-0.1-0.1-0.2-0.1-0.3-0.2
        c-0.1-0.1-0.2-0.1-0.3-0.2c-0.1-0.1-0.3-0.1-0.4-0.2c-0.1-0.1-0.3-0.1-0.4-0.2c-0.1-0.1-0.3-0.1-0.4-0.2c-0.2-0.1-0.3-0.2-0.5-0.2
        c-0.1-0.1-0.2-0.1-0.4-0.2c-0.2-0.1-0.4-0.2-0.6-0.3c-0.1,0-0.2-0.1-0.3-0.1c-0.3-0.1-0.6-0.3-0.9-0.4c-2.2-1-6-0.3-9.3,0.7
        c-0.5,0.2-1,0.3-1.5,0.5C3.4,21,3.3,21,3.1,21.1c-1.1,0.4-2,0.8-2.8,1.1c0.8,0.4,1.7,0.8,2.8,1.2C3.3,23.6,3.4,23.6,3.6,23.7z"/>
    <path class="st0" d="M23.2,24.9h0.5h2.2h0.5h2.2h0.2c0.1,0,0.1,0,0.2,0c0.2-0.1,0.3-0.3,0.3-0.5v-2.7v-1.6v-1.4
        c0-0.3-0.2-0.5-0.5-0.5h-0.9h-1.2h-0.4h-0.2h-0.4h-1.2H23c-0.3,0-0.5,0.2-0.5,0.5v0.2v0v5.5c0,0.3,0.2,0.5,0.5,0.5H23.2z"/>
</g>
</svg>
