<!-- Generator: Adobe Illustrator 21.1.0, SVG Export Plug-In  -->
<svg version="1.1"
     xmlns="http://www.w3.org/2000/svg" xmlns:xlink="http://www.w3.org/1999/xlink" xmlns:a="http://ns.adobe.com/AdobeSVGViewerExtensions/3.0/"
     x="0px" y="0px" width="55.3px" height="48.3px" viewBox="0 0 55.3 48.3" style="enable-background:new 0 0 55.3 48.3;"
     xml:space="preserve">
<style type="text/css">
    .st0{fill:#FFFFFF;}
</style>
<defs>
</defs>
<path class="st0" d="M53.3,24.3c-4.7,2.7-16.5,4.1-25.7,4.1c-9.1,0-21-1.4-25.7-4.1c-1.3-0.7-2-1.6-2-2.5v8.7v11.1
    c0,4.3,16.1,6.6,27.7,6.6c11.6,0,27.7-2.3,27.7-6.6v-4.9V21.8C55.3,22.8,54.6,23.6,53.3,24.3z M27.7,46.3C12,46.3,2.4,43,2,41.7
    v-5.2c0.9,2.2,2,4.3,3,5.1c0.3,0.2,0.7,0.4,1.1,0.4c1.6,0,3.9-1.7,7.1-4.1c2.1-1.6,4.6-3.5,5.7-3.6c1-0.1,3.9,1.6,6.5,3.1
    c4,2.3,8.1,4.6,11,4.6c0.1,0,0.1,0,0.2,0c3.4-0.1,6.5-3.6,9.1-6.6c1.5-1.7,2.9-3.2,4-3.9c0.4-0.3,0.7-0.2,0.9-0.1
    c1.2,0.5,2.3,3.5,2.7,5.6l0,4.8C52.9,43,43.4,46.3,27.7,46.3z"/>
<path class="st0" d="M43.1,18.4V4.3l0,0c0-0.4-0.1-0.7-0.3-1C40.9,0.2,30,0,27.7,0S14.4,0.2,12.5,3.3c-0.2,0.3-0.3,0.6-0.3,0.9v0.1
    l0,0v11.1l0,0v3c-6.3,1.1-10,2.6-10.2,3.4c0.4,1.3,10,4.6,25.7,4.6c15.6,0,25.1-3.2,25.6-4.6C52.9,21,49.3,19.5,43.1,18.4z
     M41.1,6.8l-0.2,0c0.1,0,0.1-0.1,0.2-0.1V6.8z M16.1,3.3C18.2,2.6,22.1,2,27.7,2s9.4,0.6,11.6,1.3c1.1,0.4,1.7,0.7,1.9,1
    c-0.1,0.3-0.8,0.6-1.9,1C37.1,6,33.2,6.7,27.7,6.7C22.1,6.7,18.2,6,16,5.3c-1.1-0.3-1.7-0.7-1.8-1C14.3,4.1,15,3.7,16.1,3.3z
     M41.1,21.6c-1.9,1-6.5,1.9-13.4,1.9c-6.9,0-11.5-0.9-13.4-1.9v-0.9v-2.6v-2.7c0.2-1.6,0.8-3.3,1.2-3.8c0.6,0.5,1.3,1.7,2,2.8
    c1.6,2.5,3.2,5,5.3,5.1c0,0,0.1,0,0.1,0c1.8,0,4.1-1.8,6.3-3.6c1.1-0.8,2.6-2.1,3-2.2c0.5,0.1,1.9,1.6,2.7,2.5
    c1.9,2,3.1,3.2,4.2,3.2c0.4,0,0.8-0.1,1-0.4c0.3-0.3,0.6-0.8,0.9-1.5v0.5v2.6V21.6z"/>
</svg>
