<!-- Generator: Adobe Illustrator 21.1.0, SVG Export Plug-In  -->
<svg version="1.1"
     xmlns="http://www.w3.org/2000/svg" xmlns:xlink="http://www.w3.org/1999/xlink" xmlns:a="http://ns.adobe.com/AdobeSVGViewerExtensions/3.0/"
     x="0px" y="0px" width="102px" height="69.1px" viewBox="0 0 102 69.1" style="enable-background:new 0 0 102 69.1;"
     xml:space="preserve">
<style type="text/css">
    .st0{fill:#FFFFFF;}
</style>
<defs>
</defs>
<path class="st0" d="M101.4,34.8c0.4-0.9,0.6-1.9,0.6-2.9c0-7.4-11.1-13.2-25.3-13.2c-1.6,0-3.2,0.1-4.8,0.2
    c-1.8-2.3-4.4-3.9-7.4-4.3C63.4,10.2,59.5,7,54.9,7c-1,0-1.9,0.1-2.8,0.4C50.9,3.2,47,0,42.4,0c-4.6,0-8.4,3-9.6,7.2
    C32.2,7.1,31.6,7,31,7c-4.6,0-8.5,3.1-9.7,7.4c-3.3,0.2-6.2,1.9-8.2,4.3C5.3,21.1,0,24.5,0,28.8c0,4,3.5,11.1,10.2,17
    c5.8,5.1,16,11.3,31.8,11.3c3.4,0,6.5-0.3,9.5-0.8c0.4,7.2,11.4,12.8,25.3,12.8c14.2,0,25.3-5.8,25.3-13.2c0-1.1-0.3-2.1-0.7-3.1
    c0.4-1,0.7-2,0.7-3.1c0-1-0.2-2-0.6-2.9c0.4-0.9,0.6-1.9,0.6-2.9c0-1.1-0.3-2.1-0.7-3.1c0.4-1,0.7-2,0.7-3.1
    C102,36.7,101.8,35.7,101.4,34.8z M64.7,19.2c0.1-0.3,0.1-0.6,0.2-1c0-0.3,0.1-0.6,0.1-1c0-0.1,0-0.1,0-0.2c0-0.2,0-0.3,0-0.5
    c1.2,0.3,2.3,0.7,3.3,1.4c0.5,0.3,0.9,0.7,1.3,1.1c-1.8,0.3-3.5,0.6-5.1,1.1C64.5,19.9,64.6,19.6,64.7,19.2z M52.4,10
    c0-0.2,0-0.4,0-0.6C53.2,9.2,54,9,54.9,9c3.5,0,6.5,2.2,7.6,5.4c0.1,0.3,0.2,0.6,0.3,1c0.1,0.3,0.1,0.7,0.1,1c0,0.2,0,0.3,0,0.5
    c0,0.1,0,0.1,0,0.2c0,0.3,0,0.5,0,0.8c0,0.3-0.1,0.6-0.2,1c-0.2,0.8-0.5,1.6-0.9,2.3c-2.8,1.1-5.2,2.4-7,4c-0.5,0-0.9,0-1.4-0.1
    c-0.3,0-0.5-0.1-0.8-0.2c-0.1,0-0.1,0-0.2,0c-0.3-0.1-0.6-0.2-1-0.4c-0.1,0-0.2-0.1-0.3-0.2c-1.5-0.7-2.7-1.9-3.4-3.4
    c-0.2-0.5-0.5-0.9-0.6-1.4c-0.1-0.2-0.1-0.3-0.1-0.5c0.8-0.4,1.6-1,2.3-1.6c0.3-0.3,0.6-0.6,0.9-0.9c0.2-0.3,0.5-0.6,0.7-0.9
    C51.8,13.9,52.4,12,52.4,10z M51.5,32.4c-1.1,4-4.8,6.9-9.1,6.9c-5.2,0-9.5-4.2-9.5-9.5c0-0.1,0-0.1,0-0.2c0-1,0.2-1.9,0.5-2.8
    c0,0,0.1,0,0.1,0c3.2-0.8,5.7-3.2,6.8-6.2c0.6-0.1,1.3-0.2,2-0.2c1.1,0,2.2,0.2,3.2,0.6c1,2.5,3.1,4.5,5.6,5.5
    c0.2,0.4,0.3,0.9,0.4,1.3c0,0.2,0.1,0.4,0.1,0.6c0.1,0.4,0.1,0.7,0.1,1.1c-0.2,0.8-0.4,1.5-0.4,2.3C51.4,32,51.4,32.2,51.5,32.4z
     M34.3,9.8c0-0.4,0-0.7,0.1-1.1c0.1-0.3,0.1-0.7,0.2-1c1-3.3,4.1-5.8,7.7-5.8c3.8,0,7,2.7,7.8,6.2c0.1,0.3,0.1,0.7,0.2,1
    c0,0.3,0,0.5,0,0.8c0,0.1,0,0.2,0,0.3c-0.1,1.9-0.8,3.5-1.9,4.9c-0.3,0.3-0.6,0.7-1,0.9c-0.2,0.2-0.5,0.4-0.7,0.5
    c-0.2,0.1-0.5,0.3-0.7,0.4c-0.1,0.1-0.2,0.1-0.3,0.2c-0.3,0.2-0.6,0.3-1,0.4c-0.8,0.3-1.6,0.4-2.5,0.4c-0.5,0-0.9,0-1.4-0.1
    c-0.3-0.1-0.7-0.1-1-0.2c-0.3-0.1-0.7-0.2-1-0.4c-0.1-0.1-0.3-0.1-0.4-0.2c-0.5-0.3-1-0.6-1.4-1c-0.3-0.3-0.7-0.6-1-1
    C35,13.8,34.3,12,34.3,10C34.3,10,34.3,9.9,34.3,9.8z M22.9,16.6c0,0,0-0.1,0-0.1c0-0.3,0.1-0.7,0.1-1c0.1-0.3,0.2-0.7,0.3-1
    C24.5,11.3,27.5,9,31,9c0.5,0,0.9,0,1.4,0.1c0,0.3,0,0.6,0,0.9c0,2,0.6,3.8,1.5,5.3c0.2,0.3,0.4,0.6,0.7,0.9
    c0.3,0.3,0.6,0.6,0.9,0.9c0.8,0.8,1.8,1.4,2.8,1.9c0.2,0.1,0.3,0.1,0.5,0.2c-0.1,0.3-0.2,0.5-0.3,0.8c-0.2,0.6-0.5,1.1-0.9,1.6
    c-0.7,1-1.6,1.8-2.7,2.4c-0.4,0.2-0.9,0.4-1.3,0.6c-0.1,0-0.2,0.1-0.3,0.1c-0.2,0.1-0.4,0.1-0.7,0.2c-0.2,0-0.4,0.1-0.6,0.1
    c-0.1,0-0.3,0-0.4,0c-0.2,0-0.4,0-0.6,0c-4,0-7.2-2.9-7.9-6.6c-0.1-0.3-0.1-0.6-0.1-1c0-0.2,0-0.3,0-0.5
    C22.9,16.9,22.9,16.7,22.9,16.6z M14.4,20.4c0.3-0.5,0.7-0.9,1.1-1.3c0.6-0.6,1.2-1.1,1.9-1.5c1.1-0.6,2.2-1,3.5-1.2
    c0,0.1,0,0.3,0,0.4c0,0.1,0,0.1,0,0.2c0,0.3,0,0.5,0,0.8c0,0.3,0.1,0.6,0.1,1c0.8,4.7,4.9,8.3,9.9,8.3c0.1,0,0.2,0,0.3,0
    c-0.2,0.7-0.3,1.4-0.3,2.1c-1.4,3.6-4.8,6.1-8.8,6.1c-5.2,0-9.5-4.2-9.5-9.5C12.7,23.8,13.3,21.9,14.4,20.4z M2.9,32.6
    c5.2,5.1,20.8,8.9,39.1,8.9c3.5,0,6.8-0.1,10-0.4c-0.4,0.9-0.6,1.8-0.6,2.8c0,1,0.2,2,0.6,2.9c-0.4,0.9-0.6,1.9-0.6,2.9
    c0,1.1,0.3,2.1,0.7,3.1c-0.2,0.5-0.4,1-0.5,1.5c-3,0.5-6.1,0.8-9.6,0.8C18.4,55.1,6.1,40.8,2.9,32.6z M76.7,66.7
    c-12.4,0-22.9-5-22.9-10.8c0,0,0,0,0,0c0-0.2,0-0.3,0.1-0.5c0.1,0.1,0.3,0.3,0.4,0.4c4.2,4.3,12.5,7.1,22.5,7.1
    c10.3,0,18.9-3,22.9-7.5c0,0.2,0.1,0.3,0.1,0.5C99.6,61.8,89.1,66.7,76.7,66.7z M99.6,50.2c0,0.5-0.2,1-0.3,1.4
    c-0.2,0.4-0.3,0.8-0.6,1.2c-2.9,4.4-11.8,7.8-21.9,7.8c-8.3,0-15.7-2.2-19.8-5.4c-0.6-0.5-1.2-1-1.6-1.6c-0.2-0.2-0.4-0.5-0.5-0.7
    c-0.2-0.4-0.4-0.8-0.6-1.2c-0.2-0.5-0.3-0.9-0.3-1.4c0-0.2-0.1-0.3-0.1-0.5c0-0.1,0-0.1,0-0.2c0.1,0.1,0.2,0.2,0.3,0.4
    c0.3,0.3,0.6,0.5,0.9,0.8c0.3,0.3,0.6,0.5,0.9,0.7c0.6,0.5,1.3,0.9,2.1,1.4c0.8,0.4,1.6,0.8,2.4,1.2c4.4,1.9,10,3.1,16.3,3.1
    c8.7,0,16.3-2.2,20.8-5.6c0.3-0.2,0.6-0.5,0.9-0.7c0.3-0.3,0.6-0.5,0.9-0.8c0.1-0.1,0.2-0.2,0.3-0.4c0,0.1,0,0.1,0,0.2
    C99.6,49.9,99.6,50,99.6,50.2z M99.6,44.1c0,0.5-0.1,1-0.3,1.5c-0.1,0.4-0.3,0.8-0.6,1.2c-0.3,0.5-0.7,1-1.2,1.5
    c-0.3,0.3-0.6,0.5-0.9,0.8c-0.3,0.3-0.6,0.5-1,0.7c-4.2,2.9-11.2,4.8-19,4.8c-4.8,0-9.4-0.7-13.1-2c-0.9-0.3-1.8-0.6-2.6-1
    c-1.2-0.6-2.3-1.2-3.3-1.8c-0.3-0.2-0.7-0.5-1-0.7c-0.3-0.3-0.6-0.5-0.9-0.8c-0.5-0.5-0.9-1-1.2-1.5c-0.2-0.4-0.4-0.8-0.6-1.2
    c-0.2-0.5-0.3-1-0.3-1.5c0-0.1,0-0.1,0-0.2c0-0.2,0-0.3,0.1-0.5c0.1,0.1,0.2,0.2,0.3,0.3c0.3,0.3,0.6,0.5,0.9,0.8
    c0.3,0.3,0.6,0.5,0.9,0.7c0.7,0.5,1.5,1,2.4,1.5c0.4,0.2,0.8,0.4,1.3,0.7c0.5,0.2,0.9,0.4,1.4,0.6c1.4,0.6,3,1.1,4.6,1.5
    c0.9,0.2,1.8,0.4,2.8,0.6c2.6,0.5,5.4,0.7,8.3,0.7c6,0,11.4-1,15.7-2.8c0.5-0.2,1-0.4,1.4-0.6c0.4-0.2,0.9-0.4,1.3-0.7
    c0.9-0.5,1.7-1,2.4-1.5c0.3-0.2,0.6-0.5,0.9-0.7c0.3-0.3,0.6-0.5,0.9-0.8c0.1-0.1,0.2-0.2,0.3-0.3c0,0.2,0.1,0.3,0.1,0.5
    C99.6,43.9,99.6,44,99.6,44.1z M99.6,38.2c0,0.5-0.2,1-0.3,1.4c-0.2,0.4-0.3,0.8-0.6,1.2c-0.3,0.5-0.7,0.9-1.1,1.4
    c-0.3,0.3-0.6,0.5-0.9,0.8c-0.3,0.3-0.6,0.5-1,0.7c-0.9,0.7-2,1.2-3.2,1.8c-0.5,0.2-1,0.5-1.6,0.7c-0.6,0.2-1.2,0.4-1.9,0.6
    c-3.6,1.1-7.8,1.8-12.3,1.8c-1.9,0-3.7-0.1-5.4-0.3c-0.9-0.1-1.9-0.3-2.8-0.4c-1.4-0.3-2.8-0.6-4.1-1c-0.6-0.2-1.3-0.4-1.9-0.6
    c-0.6-0.2-1.1-0.4-1.6-0.7c-1.2-0.5-2.3-1.1-3.2-1.8c-0.3-0.2-0.7-0.5-1-0.7c-0.3-0.3-0.6-0.5-0.9-0.8c-0.4-0.4-0.8-0.9-1.1-1.3
    c0,0,0,0,0,0c-0.2-0.4-0.4-0.8-0.6-1.2c-0.2-0.5-0.3-0.9-0.3-1.4c0-0.2-0.1-0.3-0.1-0.5c0-0.1,0-0.1,0-0.2c0.1,0.1,0.2,0.2,0.3,0.4
    c0.3,0.3,0.6,0.5,0.9,0.8c0.3,0.3,0.6,0.5,0.9,0.7c0.5,0.4,1.1,0.7,1.6,1.1c0.2,0.1,0.3,0.2,0.5,0.3c0.4,0.2,0.8,0.5,1.2,0.7
    c0.4,0.2,0.9,0.4,1.4,0.6c1.7,0.7,3.6,1.3,5.6,1.8c1,0.2,2,0.4,3,0.6c1,0.2,2.1,0.3,3.1,0.4c0.9,0.1,1.8,0.1,2.7,0.2
    c0.5,0,1.1,0,1.6,0c2.6,0,5.1-0.2,7.5-0.6c1-0.2,2.1-0.4,3-0.6c2-0.5,3.9-1.1,5.6-1.8c0.5-0.2,0.9-0.4,1.4-0.6
    c0.4-0.2,0.8-0.4,1.2-0.7c0.8-0.4,1.5-0.9,2.1-1.4c0.3-0.2,0.6-0.5,0.9-0.7c0.3-0.3,0.6-0.5,0.9-0.8c0.1-0.1,0.2-0.2,0.3-0.4
    c0,0.1,0,0.1,0,0.2C99.6,37.8,99.6,38,99.6,38.2z M99.6,32c0,0.5-0.1,1-0.3,1.5c-0.1,0.4-0.3,0.8-0.6,1.2c-0.3,0.5-0.7,1-1.2,1.5
    c-0.3,0.3-0.6,0.5-0.9,0.8c-0.3,0.3-0.6,0.5-1,0.7c-0.8,0.6-1.8,1.1-2.8,1.6c-0.5,0.2-1,0.5-1.6,0.7c-0.6,0.2-1.2,0.4-1.8,0.6
    c-3.5,1.1-7.7,1.8-12.2,1.9c-0.2,0-0.4,0-0.6,0c-0.7,0-1.4,0-2.1-0.1c-3.9-0.2-7.6-0.8-10.7-1.9c-0.6-0.2-1.2-0.4-1.8-0.6
    c-0.2-0.1-0.4-0.2-0.6-0.2c-0.3-0.1-0.7-0.3-1-0.4c-1.1-0.5-2-1-2.8-1.6c-0.3-0.2-0.7-0.5-1-0.7c-0.3-0.3-0.6-0.5-0.9-0.8
    c-0.5-0.5-0.9-1-1.2-1.5c-0.2-0.4-0.4-0.8-0.6-1.2c-0.2-0.5-0.3-1-0.3-1.5c0-0.1,0-0.1,0-0.2c0-0.7,0.2-1.4,0.5-2.1
    c0.4-0.9,1.1-1.8,2-2.7c1.6-1.5,3.8-2.7,6.5-3.7c2.5-0.9,5.3-1.6,8.4-2c1.8-0.2,3.7-0.3,5.6-0.3c0,0,0.1,0,0.1,0
    c12.4,0,22.8,5,22.8,10.8C99.6,31.9,99.6,32,99.6,32z"/>
</svg>
