<svg width="110" height="21" viewBox="0 0 110 21" xmlns="http://www.w3.org/2000/svg"><g fill="none" fill-rule="evenodd"><path d="M109.827 10.39c0 5.74-4.61 10.39-10.297 10.39s-10.296-4.65-10.296-10.39C89.234 4.653 93.844 0 99.53 0c5.687 0 10.297 4.652 10.297 10.39" fill="#FEFEFE"/><path d="M97.7 3.617c0-1.302.673-1.966 1.832-1.966 1.16 0 1.832.665 1.832 1.967l-.553 4.16-.715 6.116c-.092.74.04.804-.563.804-.602 0-.55-.063-.644-.804l-.648-6.115-.54-4.16z" fill="#2DACDE"/><path d="M99.53 12.806c-1.37 0-2.48 1.06-2.48 2.367 0 .76.637 2.877.958 3.957.14-1.078.483-3.907.76-3.822.24.074.605 2.744.762 3.822.175-1.078.576-3.736.837-3.825.25-.085.553 2.75.684 3.825.314-1.08.96-3.197.96-3.957 0-1.307-1.11-2.367-2.48-2.367" fill="#2DACDE"/><path d="M7.528 16.006c3.08 0 4.136-2.42 4.136-5.3S10.3 5.778 7.528 5.778c-2.77 0-4.136 2.045-4.136 4.925s.95 5.3 4.136 5.3m0-12.98c4.88 0 7.528 3.276 7.528 7.68 0 4.236-2.44 8.056-7.528 8.056C2.192 18.76 0 15.255 0 10.706c0-4.404 2.647-7.68 7.528-7.68M17.475 5.112c0-1.42.683-2.004 2.13-2.004.704 0 1.324.27 1.696.897l5.937 9.663h.04v-8.91c0-1.107.622-1.65 1.635-1.65s1.634.543 1.634 1.65v11.79c0 1.357-.58 2.13-2.006 2.13-1.076 0-1.427-.23-1.862-.92l-5.894-9.39h-.04v8.66c0 1.106-.62 1.65-1.635 1.65-1.014 0-1.635-.544-1.635-1.65V5.112zM37.267 6.26h-3.205c-.972 0-1.758-.5-1.758-1.44s.786-1.44 1.758-1.44h9.803c.972 0 1.757.5 1.757 1.44s-.785 1.44-1.757 1.44H40.66v10.706c0 1.022-.663 1.71-1.697 1.71s-1.696-.688-1.696-1.71V6.26zM50.627 10.058h3.392c1.28 0 2.563-.334 2.563-2.025 0-1.607-.972-2.024-2.46-2.024h-3.496v4.048zm-3.39-4.675c0-1.524.785-2.004 1.984-2.004h5.647c4.033 0 5.108 2.232 5.108 4.173 0 1.628-.95 3.235-2.564 3.61v.043c1.738.25 2.048 1.523 2.048 3.047 0 1.732.455 2.38.455 3.088 0 .794-.807 1.337-1.592 1.337-1.86 0-2.005-1.816-2.005-2.42 0-2.63-.476-3.695-2.337-3.695h-3.35v4.404c0 1.022-.662 1.71-1.696 1.71-1.035 0-1.696-.688-1.696-1.71V5.383zM68.35 6.823h-.04l-2.006 6.03h3.97l-1.923-6.03zM66.305 4.15c.29-.77.827-1.042 1.654-1.042h.807c.765 0 1.447.188 1.82 1.252l4.094 11.5c.123.334.33.94.33 1.314 0 .835-.724 1.503-1.592 1.503-.745 0-1.282-.27-1.53-.94l-.87-2.503h-5.46l-.888 2.504c-.228.668-.703.94-1.51.94-.93 0-1.572-.585-1.572-1.504 0-.375.207-.98.33-1.314l4.386-11.71zM78.754 12.54l-4.157-6.97c-.166-.27-.29-.584-.29-.897 0-1.168 1.055-1.565 1.717-1.565.806 0 1.18.334 1.53 1.002l2.958 5.49 2.936-5.49c.393-.75.765-1.002 1.47-1.002.62 0 1.674.397 1.674 1.565 0 .313-.124.626-.29.898l-4.157 6.97v4.426c0 1.022-.66 1.71-1.695 1.71-1.034 0-1.696-.688-1.696-1.71V12.54z" fill="#FEFEFE"/></g></svg>